<?xml version="1.0" encoding="UTF-8"?>
<svg id="svg16" xmlns="http://www.w3.org/2000/svg" version="1.1" xmlns:inkscape="http://www.inkscape.org/namespaces/inkscape" xmlns:sodipodi="http://sodipodi.sourceforge.net/DTD/sodipodi-0.dtd" xmlns:svg="http://www.w3.org/2000/svg" viewBox="0 0 779 139">
  <defs>
    <style>
      .cls-1, .cls-2 {
        fill: #fbdd11;
        stroke-width: 0px;
      }

      .cls-3, .cls-4 {
        isolation: isolate;
      }

      .cls-2 {
        fill-rule: evenodd;
      }

      .cls-4 {
        fill: #4cbf4b;
        font-family: ArialMT, Arial;
        font-size: 127px;
      }
    </style>
  </defs>
  <sodipodi:namedview id="namedview18" bordercolor="#666666" borderopacity="1.0" inkscape:current-layer="layer1" inkscape:cx="316.65603" inkscape:cy="-63.245739" inkscape:pagecheckerboard="0" inkscape:pageopacity="0.0" inkscape:pageshadow="2" inkscape:window-height="1131" inkscape:window-maximized="1" inkscape:window-width="1920" inkscape:window-x="0" inkscape:window-y="0" inkscape:zoom="1.1700393" pagecolor="#ffffff" showgrid="false"/>
  <path id="path2" class="cls-1" d="M78.1,3.1c-.7,0-1.3.3-1.6.9l-3.4,5.5c-.5,0-1.1,0-1.6.2l-4.4-4.7c-.4-.5-1.1-.7-1.8-.6-.6,0-1.2.6-1.4,1.2l-2.3,6.1c-.5.2-1,.3-1.6.5l-5.2-3.8c-.5-.4-1.2-.5-1.8-.2s-1,.8-1.1,1.4l-1,6.4c-.5.2-1,.5-1.4.8l-5.9-2.7c-.6-.3-1.3-.2-1.8.1-.5.4-.9,1-.8,1.6l.2,6.5c-.4.3-.8.7-1.2,1l-6.3-1.5c-.6-.1-1.3,0-1.8.5s-.7,1.1-.5,1.8l1.5,6.3c-.3.4-.7.8-1,1.2l-6.5-.2c-.7,0-1.3.3-1.6.8-.4.5-.4,1.2-.1,1.8l2.7,5.9c-.3.5-.5.9-.8,1.4l-6.4,1c-.6,0-1.2.5-1.4,1.1-.3.6-.2,1.3.2,1.8l3.8,5.2c-.2.5-.3,1-.5,1.6l-6.1,2.3c-.6.2-1.1.8-1.2,1.4-.1.6,0,1.3.6,1.8l4.7,4.4c0,.5-.1,1.1-.2,1.6l-5.5,3.4c-.6.3-.9,1-.9,1.6s.3,1.3.9,1.6l5.5,3.4c0,.5,0,1.1.2,1.6l-4.7,4.4c-.5.4-.7,1.1-.6,1.8.1.6.6,1.2,1.2,1.4l6.1,2.3c.2.5.3,1,.5,1.6l-3.8,5.2c-.4.5-.5,1.2-.2,1.8.3.6.8,1,1.5,1.1l6.4,1c.2.5.5,1,.8,1.4l-2.7,5.9c-.3.6-.2,1.3.1,1.8.4.5,1,.9,1.6.8l6.5-.2c.3.4.7.8,1,1.2l-1.5,6.3c-.2.6,0,1.3.5,1.8s1.1.7,1.8.5l6.3-1.5c.4.3.8.7,1.2,1l-.2,6.5c0,.7.3,1.3.8,1.6.5.4,1.2.4,1.8,0l5.9-2.7c.5.3,1,.5,1.4.8l1,6.4c0,.6.5,1.2,1.1,1.5s1.3.2,1.8-.2l5.2-3.8c.5.2,1,.3,1.6.5l2.3,6.1c.2.6.8,1.1,1.4,1.2.6.1,1.3,0,1.8-.6l4.4-4.7c.5,0,1.1,0,1.6.2l3.4,5.5c.3.6,1,.9,1.6.9s1.3-.3,1.6-.9l3.4-5.5c.5,0,1.1,0,1.6-.2l4.4,4.7c.4.5,1.1.7,1.8.6.6-.1,1.2-.6,1.4-1.2l2.3-6.1c.5-.2,1-.3,1.6-.5l5.2,3.8c.5.4,1.2.5,1.8.2.6-.2,1-.8,1.1-1.5l1-6.4c.5-.2,1-.5,1.4-.8l5.9,2.7c.6.3,1.3.2,1.8,0,.5-.4.9-1,.8-1.6l-.2-6.5c.4-.3.8-.7,1.2-1l6.3,1.5c.6.2,1.3,0,1.8-.5s.7-1.1.5-1.8l-1.5-6.3c.3-.4.7-.8,1-1.2l6.5.2c.7,0,1.3-.3,1.6-.8.4-.5.4-1.2.1-1.8l-2.7-5.9c.3-.5.5-1,.8-1.4l6.4-1c.6,0,1.2-.5,1.4-1.1.3-.6.2-1.3-.2-1.8l-3.8-5.2c.2-.5.3-1,.5-1.6l6.1-2.3c.6-.2,1.1-.8,1.2-1.4.1-.6,0-1.3-.6-1.8l-4.7-4.4c0-.5.1-1.1.2-1.6l5.5-3.4c.6-.3.9-1,.9-1.6s-.3-1.3-.9-1.6h0l-5.5-3.4c0-.5,0-1.1-.2-1.6l4.7-4.4c.5-.4.7-1.1.6-1.8-.1-.6-.6-1.2-1.2-1.4l-6.1-2.3c-.2-.5-.3-1-.5-1.6l3.8-5.2c.4-.5.5-1.2.2-1.8s-.8-1-1.4-1.1l-6.4-1c-.2-.5-.5-1-.8-1.4l2.7-5.9c.3-.6.2-1.3-.1-1.8-.4-.5-1-.9-1.6-.8l-6.5.2c-.3-.4-.7-.8-1-1.2l1.5-6.3c.2-.6,0-1.3-.5-1.8s-1.1-.7-1.8-.5l-6.3,1.5c-.4-.3-.8-.7-1.2-1l.2-6.5c0-.7-.3-1.3-.8-1.6-.5-.4-1.2-.4-1.8-.1l-5.9,2.7c-.5-.3-1-.5-1.4-.8l-1-6.4c0-.6-.5-1.2-1.1-1.4-.6-.3-1.3-.2-1.8.2l-5.2,3.8c-.5-.2-1-.3-1.6-.5l-2.3-6.1c-.2-.6-.8-1.1-1.4-1.2-.6,0-1.3,0-1.8.6l-4.4,4.7c-.5,0-1.1-.1-1.6-.2l-3.4-5.5c-.3-.6-1-.9-1.6-.9h-.1ZM77.8,14.7c1,0,2,.4,2.7,1.2,1.5,1.6,1.4,4,0,5.5-1.6,1.5-4,1.4-5.5-.1-1.5-1.6-1.4-4,0-5.5.8-.7,1.8-1.1,2.8-1.1ZM86.8,21.1c14.1,2.6,26,11.4,32.9,23.5l-4.6,10.4c-.8,1.8,0,3.9,1.8,4.7l8.9,3.9c.2,1.6.2,3.2.2,4.8h0c0,1.2,0,2.4,0,3.6h-.2c-.7,9-3.9,17.6-9.3,24.9h.5c-1.4,1.8-2.8,3.6-4.4,5.2l-8.3-1.8h0c-1.9-.4-3.8.8-4.2,2.8l-2,9.1c-6,2.7-12.8,4.3-19.8,4.3s-14.1-1.6-20.2-4.5l-2-9.1c-.4-1.9-2.3-3.1-4.2-2.7l-8.1,1.7c-1.5-1.5-2.9-3.2-4.2-4.9h.2c-3.4-4.6-6-9.8-7.5-15.4h-.2c-1.2-4.2-1.8-8.6-1.8-13.2s0-3.4.3-5.1l8.4-3.7c1.8-.8,2.6-2.9,1.8-4.7l-1.7-3.9h0l-2.6-5.9c1.8-3.1,3.9-6.1,6.3-8.7h-.2c6.9-7.7,16.3-13.2,26.9-15.2l6,6.3c1.4,1.4,3.6,1.5,5,.1l6.7-6.4h-.3ZM31.2,50.1c1.5,0,3,.8,3.6,2.3.9,2,0,4.3-2,5.2s-4.3,0-5.1-2c-.9-2,0-4.3,2-5.2.5-.2,1-.3,1.5-.3ZM124.4,50.3c.5,0,1,0,1.5.3,2,.9,2.9,3.2,2,5.2s-3.2,2.9-5.1,2c-2-.9-2.9-3.2-2-5.2.7-1.5,2.1-2.3,3.6-2.3ZM48.9,105c1.8,0,3.4,1.2,3.8,3.1.5,2.1-.9,4.2-3,4.6-2.1.5-4.2-.9-4.6-3-.5-2.1.9-4.2,3-4.6h.8ZM106.8,105.2h.8c2.1.5,3.4,2.5,3,4.6-.5,2.1-2.5,3.4-4.6,3h0c-2.1-.5-3.4-2.5-3-4.6.4-1.8,2-3.1,3.8-3.1h0Z"/>
  <path class="cls-2" d="M95.1,90.8c-25.8,3.2-37.7-19.5-35.6-21.8,1.4-1.5,3.6-1.6,5.4-1.6,8.7-.3,20.9,9.9,23.4,9.8,4.8,0,12-7.8,16.8-14.1,2-2.6,14.4-6.6,13,.3-4.5,22.5-19.6,26.9-22.9,27.3h-.1ZM59.2,48.2c25.8-3.2,37.7,19.6,35.6,21.8-1.4,1.5-3.6,1.6-5.4,1.6-8.7.3-20.9-9.9-23.4-9.8-4.8,0-12,7.8-16.8,14.1-2,2.6-14.4,6.6-13-.3,4.5-22.5,19.7-26.9,23-27.3h0Z"/>
  <g class="cls-3">
    <text class="cls-4" transform="translate(171.1 108.8)"><tspan x="0" y="0">RsBanano</tspan></text>
  </g>
</svg>
