<?xml version="1.0" encoding="UTF-8" standalone="no"?>
<svg
   width="779"
   height="139"
   viewBox="0 0 779 139"
   fill="none"
   version="1.1"
   id="svg16"
   sodipodi:docname="logo.svg"
   inkscape:version="1.1.2 (0a00cf5339, 2022-02-04, custom)"
   xmlns:inkscape="http://www.inkscape.org/namespaces/inkscape"
   xmlns:sodipodi="http://sodipodi.sourceforge.net/DTD/sodipodi-0.dtd"
   xmlns="http://www.w3.org/2000/svg"
   xmlns:svg="http://www.w3.org/2000/svg">
  <defs
     id="defs20" />
  <sodipodi:namedview
     id="namedview18"
     pagecolor="#ffffff"
     bordercolor="#666666"
     borderopacity="1.0"
     inkscape:pageshadow="2"
     inkscape:pageopacity="0.0"
     inkscape:pagecheckerboard="0"
     showgrid="false"
     inkscape:zoom="1.1700393"
     inkscape:cx="316.65603"
     inkscape:cy="-63.245739"
     inkscape:window-width="1920"
     inkscape:window-height="1131"
     inkscape:window-x="0"
     inkscape:window-y="0"
     inkscape:window-maximized="1"
     inkscape:current-layer="layer1" />
  <path
     id="path2"
     style="fill:#209ce9;fill-opacity:1;stroke-width:0.100299"
     d="m 38.626579,21.712553 a 1.3302988,1.3302988 0 0 0 -1.119922,2.04566 l 1.870317,2.928025 a 1.3302988,1.3302988 0 0 0 0,0.0018 L 59.169903,57.650157 H 43.715278 a 1.3302988,1.3302988 0 0 0 -1.331096,1.329206 v 8.367401 a 1.3302988,1.3302988 0 0 0 1.331096,1.329213 H 59.343353 L 57.6333,71.328738 c -4.639505,0 -9.278517,-1e-5 -13.918022,0 a 1.3302988,1.3302988 0 0 0 -1.331096,1.331086 c 5.5e-4,2.786911 -0.0029,5.57447 -0.0019,8.36364 a 1.3302988,1.3302988 0 0 0 1.331096,1.329204 h 6.810057 c -4.961277,7.694187 -9.924204,15.388437 -14.885229,23.082942 h 8.770882 v 2.90352 h 2.51135 a 1.3302988,1.3302988 0 0 0 1.114274,-0.60333 C 53.549254,99.274986 59.06428,90.8134 64.579092,82.352668 h 10.571435 c 5.430462,8.458039 10.859525,16.918013 16.291745,25.375592 a 1.3302988,1.3302988 0 0 0 1.119921,0.61087 h 1.287734 v -1.93442 h 9.087613 v 1.93442 h 0.36388 a 1.3302988,1.3302988 0 0 0 1.12369,-2.04378 C 99.35179,98.314865 94.279108,90.333441 89.206105,82.352668 h 6.823262 a 1.3302988,1.3302988 0 0 0 1.329204,-1.329204 v -8.36364 a 1.3302988,1.3302988 0 0 0 -1.329204,-1.331086 c -4.61039,0 -9.220906,-1e-5 -13.831287,0 l -1.685554,-2.652761 h 15.514949 a 1.3302988,1.3302988 0 0 0 1.329214,-1.329213 V 58.979363 A 1.3302988,1.3302988 0 0 0 96.027475,57.650157 H 80.67279 c 7.320346,-11.294716 14.640084,-22.59039 21.96112,-33.884406 a 1.3302988,1.3302988 0 0 0 -1.11804,-2.0532 H 91.016089 a 1.3302988,1.3302988 0 0 0 -1.116157,0.603328 C 83.285315,32.458732 76.66981,42.601807 70.054315,52.744348 63.577701,42.605468 57.099572,32.466221 50.623382,22.327194 A 1.3302988,1.3302988 0 0 0 49.503451,21.712553 Z M 69.780076,1.1956351 c -0.692418,0 -1.323933,0.3553621 -1.678014,0.9389287 l -3.567174,5.7693226 c -0.561269,0.045901 -1.12386,0.1023929 -1.679887,0.1640299 L 58.239543,3.1112001 C 57.77138,2.6102517 57.075902,2.3848503 56.403157,2.5173005 c -0.67536,0.1350721 -1.231358,0.608588 -1.468722,1.2537898 l -2.360518,6.3330587 c -0.548159,0.157364 -1.09017,0.323495 -1.62522,0.493973 L 45.465962,6.651981 C 44.908622,6.2493865 44.183055,6.164604 43.552273,6.4295036 42.918875,6.6917803 42.463319,7.2645094 42.353166,7.935938 l -1.087882,6.6762 c -0.503571,0.260966 -1.002036,0.5291 -1.495114,0.803181 l -6.15018,-2.805475 c -0.62553,-0.285882 -1.351754,-0.228322 -1.928767,0.154602 -0.571762,0.380301 -0.904818,1.033631 -0.87859,1.719484 l 0.235674,6.779899 c -0.438006,0.350138 -0.872103,0.707078 -1.300929,1.069021 l -6.597009,-1.561111 c -0.670119,-0.156055 -1.375675,0.04459 -1.860895,0.529797 -0.487827,0.486524 -0.687157,1.186838 -0.52979,1.86089 l 1.547908,6.597014 c -0.360626,0.427511 -0.716995,0.861038 -1.067138,1.299041 l -6.7799,-0.237562 c -0.683228,-0.01967 -1.337293,0.308719 -1.717593,0.880483 -0.382924,0.569139 -0.441056,1.299299 -0.156488,1.928762 l 2.805475,6.163373 c -0.272772,0.494392 -0.542213,0.992861 -0.803179,1.495121 l -6.6743111,1.084105 c -0.6779861,0.110156 -1.2499795,0.564404 -1.5083294,1.199114 -0.262269,0.636021 -0.1774942,1.364786 0.2224784,1.915567 l 3.9480331,5.480857 c -0.171799,0.541602 -0.338501,1.086893 -0.495858,1.640297 l -6.334953,2.358636 c -0.6425779,0.239983 -1.116253,0.797873 -1.250018,1.470612 -0.1337554,0.674052 0.091609,1.362395 0.5939062,1.834494 l 4.9567103,4.617346 c -0.061684,0.55734 -0.116814,1.118039 -0.164028,1.678005 l -5.7561244,3.567174 c -0.5835677,0.360635 -0.9389327,0.997479 -0.9389327,1.6912 0,0.693731 0.355365,1.323933 0.9389327,1.678014 l 5.7561244,3.567174 c 0.047204,0.561269 0.102392,1.122547 0.164028,1.679887 l -4.9567103,4.615458 c -0.5022583,0.468163 -0.7276616,1.163641 -0.5939062,1.836386 0.133765,0.67536 0.6074401,1.230055 1.250018,1.468722 l 6.334953,2.360518 c 0.157357,0.548159 0.324059,1.09157 0.495858,1.638416 l -3.9480331,5.480853 c -0.4012758,0.558653 -0.4860603,1.284791 -0.2224784,1.915573 0.2635916,0.636023 0.8369751,1.090266 1.5215254,1.199116 l 6.6743111,1.085993 c 0.260966,0.506197 0.527791,1.004661 0.803179,1.495123 l -2.805475,6.150162 c -0.285881,0.62553 -0.226436,1.34986 0.156488,1.92688 0.382925,0.57308 1.034365,0.90802 1.717602,0.88047 l 6.766695,-0.23756 c 0.352769,0.44062 0.707081,0.87211 1.06902,1.30093 l -1.546025,6.59514 c -0.157367,0.6688 0.04006,1.36435 0.527917,1.84957 0.483898,0.48914 1.18872,0.68528 1.862767,0.52792 l 6.595137,-1.54792 c 0.428816,0.36456 0.862923,0.7183 1.30092,1.06714 l -0.235675,6.7799 c -0.02626,0.68585 0.308721,1.33728 0.880483,1.7176 0.569145,0.38161 1.297415,0.44048 1.926874,0.15459 l 6.15018,-2.80735 c 0.495704,0.27538 0.994169,0.54408 1.495124,0.80505 l 1.089755,6.67433 c 0.110163,0.67929 0.562524,1.25399 1.197234,1.52151 0.633398,0.26359 1.364786,0.1775 1.915561,-0.22247 l 5.480863,-3.94614 c 0.541595,0.17179 1.086888,0.33849 1.640299,0.49586 l 2.360518,6.33494 c 0.239979,0.64258 0.795987,1.11888 1.468722,1.25002 0.674057,0.13639 1.362401,-0.0904 1.834493,-0.59391 l 4.617351,-4.95672 c 0.557339,0.0643 1.118039,0.11803 1.678004,0.16781 l 3.567174,5.75801 c 0.359323,0.58094 0.997402,0.93893 1.678004,0.93893 0.680612,0 1.32402,-0.35668 1.691211,-0.93893 l 3.567173,-5.75801 c 0.561269,-0.0498 1.122547,-0.10347 1.679887,-0.16781 l 4.615459,4.95672 c 0.468163,0.50357 1.163641,0.7303 1.836385,0.59391 0.675361,-0.13246 1.231359,-0.60744 1.468722,-1.25002 l 2.360518,-6.33494 c 0.54816,-0.15737 1.09157,-0.32407 1.638417,-0.49586 l 5.482744,3.94614 c 0.557331,0.39997 1.282898,0.48606 1.913679,0.22247 0.634701,-0.26097 1.088954,-0.83698 1.199107,-1.52151 l 1.087873,-6.67433 c 0.503581,-0.26097 1.002043,-0.5336 1.495121,-0.80505 l 6.15017,2.80735 c 0.62553,0.28589 1.35176,0.22702 1.92876,-0.15459 0.57178,-0.38293 0.90351,-1.03175 0.8786,-1.7176 l -0.23567,-6.7799 c 0.438,-0.35016 0.87152,-0.70258 1.29903,-1.06714 l 6.59703,1.54792 c 0.67012,0.15736 1.37756,-0.0388 1.86277,-0.52792 0.48783,-0.48652 0.68527,-1.18602 0.5279,-1.84957 l -1.54791,-6.59514 c 0.36196,-0.42882 0.71831,-0.86031 1.06713,-1.30093 l 6.7799,0.23756 c 0.68323,0.0275 1.33919,-0.30739 1.71949,-0.88047 0.38292,-0.57177 0.44181,-1.29872 0.15462,-1.92688 l -2.80738,-6.150162 c 0.27409,-0.497016 0.54353,-0.995491 0.80319,-1.495123 l 6.67431,-1.085993 c 0.6793,-0.10885 1.25128,-0.563093 1.50833,-1.199116 0.26227,-0.633398 0.18011,-1.364788 -0.22249,-1.915573 L 129.0212,88.67064 c 0.17048,-0.541605 0.33719,-1.085005 0.49588,-1.638416 l 6.33493,-2.360518 c 0.6439,-0.241293 1.117,-0.795988 1.24813,-1.468722 0.13639,-0.674058 -0.0884,-1.364284 -0.59202,-1.836386 l -4.95671,-4.615458 c 0.0603,-0.55734 0.11554,-1.119931 0.16403,-1.679887 l 5.75612,-3.567174 c 0.58357,-0.359323 0.93895,-0.997402 0.93895,-1.678014 0,-0.680602 -0.35349,-1.32401 -0.93705,-1.6912 h -0.0416 l -5.75612,-3.567174 c -0.0486,-0.561279 -0.10374,-1.120665 -0.16403,-1.678005 l 4.95671,-4.617346 c 0.50357,-0.469476 0.73029,-1.163065 0.5939,-1.834494 -0.13245,-0.675362 -0.60612,-1.233252 -1.25001,-1.470612 l -6.33495,-2.358636 c -0.15867,-0.548158 -0.32538,-1.09345 -0.49586,-1.640297 l 3.94803,-5.480857 c 0.4026,-0.557338 0.48475,-1.283478 0.22248,-1.915567 -0.26228,-0.633397 -0.83558,-1.087645 -1.50833,-1.199114 l -6.67431,-1.084105 c -0.25962,-0.506194 -0.53038,-1.004664 -0.80316,-1.495121 l 2.80737,-6.163373 c 0.28719,-0.62684 0.22832,-1.351754 -0.15461,-1.928762 -0.38161,-0.571764 -1.02781,-0.906711 -1.71759,-0.880483 l -6.7799,0.237562 c -0.35014,-0.438003 -0.70765,-0.872841 -1.0709,-1.299041 l 1.56109,-6.597014 c 0.15737,-0.670117 -0.042,-1.375676 -0.52979,-1.86089 -0.48388,-0.485212 -1.18552,-0.687163 -1.86088,-0.529797 l -6.59701,1.561111 c -0.42751,-0.361943 -0.86162,-0.718883 -1.30094,-1.069021 l 0.23756,-6.779899 c 0.0262,-0.685853 -0.30869,-1.339183 -0.88047,-1.719484 -0.57308,-0.382924 -1.29741,-0.439173 -1.92688,-0.154602 l -6.150161,2.805475 C 99.306072,15.142551 98.8076,14.873104 98.307968,14.612138 l -1.089765,-6.6762 C 97.10805,7.2592638 96.655689,6.6865348 96.020978,6.4295036 95.387581,6.1659159 94.656193,6.2506975 94.105408,6.651981 l -5.480853,3.946141 C 88.084263,10.426332 87.54036,10.261513 86.997452,10.104149 L 84.636982,3.7710903 C 84.397002,3.1258885 83.840995,2.6510617 83.16826,2.5173005 82.494203,2.3848503 81.805859,2.6102517 81.333767,3.1112001 L 76.716416,8.0679163 C 76.159086,8.0062803 75.598377,7.9497866 75.038412,7.9038864 L 71.471238,2.1345638 C 71.110602,1.5509972 70.472446,1.1956351 69.780037,1.1956351 Z M 69.472755,13.36966 c 1.042551,0.02475 2.077002,0.447618 2.85072,1.261332 1.547435,1.626116 1.494303,4.210661 -0.135744,5.771208 -1.626118,1.560548 -4.210582,1.494876 -5.758017,-0.133861 -1.547097,-1.625766 -1.49326,-4.208673 0.135754,-5.769325 0.813054,-0.780274 1.864737,-1.154106 2.907287,-1.129354 z m 9.411916,6.657347 c 14.687501,2.740794 27.145009,11.892875 34.357629,24.521508 l -4.81153,10.859902 c -0.83013,1.875281 0.0158,4.077753 1.88727,4.903926 l 9.2592,4.117712 c 0.15999,1.639227 0.24321,3.304538 0.24321,4.983112 l -0.0132,0.03205 c 0,1.253686 -0.0459,2.492854 -0.13763,3.725554 h -0.16026 a 50.134167,50.134167 0 0 1 -9.76449,25.992123 c 0.16997,-0.01062 0.33835,-0.01767 0.52226,-0.05087 -1.41629,1.927726 -2.97639,3.749646 -4.64185,5.454446 l -8.629467,-1.84769 -0.07163,0.0358 c -2.006418,-0.43014 -3.986531,0.84848 -4.406177,2.86015 l -2.045658,9.54577 c -6.307759,2.85882 -13.376793,4.45897 -20.720548,4.45897 -7.553569,0 -14.686922,-1.6651 -21.112702,-4.65505 l -2.045658,-9.54766 c -0.430139,-2.00642 -2.399759,-3.29102 -4.406186,-2.85827 l -8.433385,1.80998 c -1.560554,-1.613 -3.01578,-3.33176 -4.353392,-5.141467 h 0.171577 A 50.134167,50.134167 0 0 1 21.685402,83.15019 H 21.42711 c -1.244507,-4.380016 -1.913689,-8.995629 -1.913689,-13.769072 0,-1.807406 0.09708,-3.58927 0.282811,-5.345109 l 8.738833,-3.88769 c 1.875279,-0.832731 2.728452,-3.028646 1.88917,-4.903927 L 28.614251,51.15119 v 0.0264 l -2.716868,-6.167143 a 50.134167,50.134167 0 0 1 6.563078,-9.106482 h -0.209253 c 7.225735,-8.0519 17.04855,-13.769308 28.064179,-15.867523 l 6.282149,6.583816 c 1.416295,1.481864 3.763405,1.547452 5.258384,0.120661 z M 20.738939,50.302755 c 1.586569,-0.02754 3.108722,0.880549 3.797201,2.422738 0.912715,2.058875 -0.01583,4.472389 -2.072059,5.390359 -2.058874,0.914035 -4.459192,-0.0158 -5.377158,-2.072056 -0.917975,-2.056251 0.01583,-4.472389 2.07205,-5.390356 0.514721,-0.228181 1.051113,-0.341505 1.579966,-0.350685 z m 97.356391,0.194196 c 0.52936,0.0097 1.06712,0.123074 1.58183,0.352569 2.05888,0.912724 2.99003,3.331485 2.07206,5.390359 -0.91141,2.058873 -3.31829,2.990023 -5.37716,2.072054 -2.05888,-0.912724 -2.99002,-3.331485 -2.07205,-5.390358 0.68355,-1.544155 2.2072,-2.453515 3.79532,-2.424624 z M 39.257341,107.72638 c 1.896535,-0.0166 3.604696,1.29744 4.017778,3.22403 0.470789,2.20312 -0.929096,4.38091 -3.133531,4.85301 -2.203122,0.47472 -4.367717,-0.92778 -4.839819,-3.13353 -0.470789,-2.20312 0.929675,-4.38092 3.135423,-4.85301 0.275387,-0.0589 0.549211,-0.0881 0.820149,-0.0905 z m 60.51755,0.19606 c 0.270969,0.003 0.546639,0.0315 0.822029,0.0905 2.20313,0.47079 3.60563,2.64989 3.13354,4.85303 -0.47211,2.20311 -2.6367,3.60562 -4.839822,3.13353 h -0.01323 c -2.203122,-0.47473 -3.592437,-2.64802 -3.120335,-4.85114 0.411943,-1.92774 2.121011,-3.24349 4.017784,-3.22591 z" />
  <g
     inkscape:groupmode="layer"
     id="layer1"
     inkscape:label="Layer 1"
     style="display:inline">
    <g
       aria-label="RsNano"
       id="text4032"
       style="font-size:120px;line-height:1.25;font-family:'Noto Sans';-inkscape-font-specification:'Noto Sans';letter-spacing:2px;fill:#20204c">
      <path
         d="m 203.32788,23.84327 q 15.96,0 23.52,6.12 7.68,6 7.68,18.24 0,6.84 -2.52,11.4 -2.52,4.56 -6.48,7.32 -3.84,2.64 -8.16,4.2 l 23.52,38.4 h -12.6 l -20.76,-35.4 h -17.04 v 35.4 h -10.8 v -85.68 z m -0.6,9.36 h -12.24 v 31.8 h 12.84 q 10.44,0 15.24,-4.08 4.8,-4.2 4.8,-12.24 0,-8.4 -5.04,-11.88 -5.04,-3.6 -15.6,-3.6 z"
         id="path2906" />
      <path
         d="m 296.76785,91.76327 q 0,9.36 -6.96,14.16 -6.96,4.8 -18.72,4.8 -6.72,0 -11.64,-1.08 -4.8,-1.08 -8.52,-3 v -9.6 q 3.84,1.92 9.24,3.6 5.52,1.56 11.16,1.56 8.04,0 11.64,-2.52 3.6,-2.64 3.6,-6.96 0,-2.4 -1.32,-4.32 -1.32,-1.92 -4.8,-3.84 -3.36,-1.92 -9.72,-4.32 -6.24,-2.4 -10.68,-4.8 -4.44,-2.4 -6.84,-5.76 -2.4,-3.36 -2.4,-8.64 0,-8.16 6.6,-12.6 6.72,-4.44 17.52,-4.44 5.88,0 10.92,1.2 5.16,1.08 9.6,3.12 l -3.6,8.4 q -4.08,-1.68 -8.52,-2.88 -4.44,-1.2 -9.12,-1.2 -6.48,0 -9.96,2.16 -3.36,2.04 -3.36,5.64 0,2.64 1.56,4.56 1.56,1.8 5.16,3.6 3.72,1.68 9.84,4.08 6.12,2.28 10.44,4.68 4.32,2.4 6.6,5.88 2.28,3.36 2.28,8.52 z"
         id="path2908" />
      <path
         d="m 383.72786,109.52327 h -12.6 l -45.84,-71.16 h -0.48 q 0.24,4.2 0.6,10.44 0.36,6.24 0.36,12.84 v 47.88 h -9.96 v -85.68 h 12.48 l 45.72,70.92 h 0.48 q -0.12,-1.92 -0.36,-5.76 -0.12,-3.84 -0.36,-8.4 -0.12,-4.56 -0.12,-8.4 v -48.36 h 10.08 z"
         id="path2910" />
      <path
         d="m 431.92789,44.12327 q 11.76,0 17.4,5.16 5.64,5.16 5.64,16.44 v 43.8 h -7.68 l -2.04,-9.12 h -0.48 q -4.2,5.28 -8.88,7.8 -4.56,2.52 -12.72,2.52 -8.76,0 -14.52,-4.56 -5.76,-4.68 -5.76,-14.52 0,-9.6 7.56,-14.76 7.56,-5.28 23.28,-5.76 l 10.92,-0.36 v -3.84 q 0,-8.04 -3.48,-11.16 -3.48,-3.12 -9.84,-3.12 -5.04,0 -9.6,1.56 -4.56,1.44 -8.52,3.36 l -3.24,-7.92 q 4.2,-2.28 9.96,-3.84 5.76,-1.68 12,-1.68 z m 3.12,34.32 q -12,0.48 -16.68,3.84 -4.56,3.36 -4.56,9.48 0,5.4 3.24,7.92 3.36,2.52 8.52,2.52 8.16,0 13.56,-4.44 5.4,-4.56 5.4,-13.92 v -5.76 z"
         id="path2912" />
      <path
         d="m 507.84799,44.00327 q 11.52,0 17.4,5.64 5.88,5.52 5.88,18 v 41.88 h -10.44 v -41.16 q 0,-15.48 -14.4,-15.48 -10.68,0 -14.76,6 -4.08,6 -4.08,17.28 v 33.36 h -10.56 v -64.32 h 8.52 l 1.56,8.76 h 0.6 q 3.12,-5.04 8.64,-7.44 5.52,-2.52 11.64,-2.52 z"
         id="path2914" />
      <path
         d="m 608.96799,77.24327 q 0,15.96 -8.16,24.72 -8.04,8.76 -21.84,8.76 -8.52,0 -15.24,-3.84 -6.6,-3.96 -10.44,-11.4 -3.84,-7.56 -3.84,-18.24 0,-15.96 8.04,-24.6 8.04,-8.64 21.84,-8.64 8.76,0 15.36,3.96 6.72,3.84 10.44,11.28 3.84,7.32 3.84,18 z m -48.6,0 q 0,11.4 4.44,18.12 4.56,6.6 14.4,6.6 9.72,0 14.28,-6.6 4.56,-6.72 4.56,-18.12 0,-11.4 -4.56,-17.88 -4.56,-6.48 -14.4,-6.48 -9.84,0 -14.28,6.48 -4.44,6.48 -4.44,17.88 z"
         id="path2916" />
    </g>
  </g>
</svg>
